<svg width="64" height="64" viewBox="0 0 64 64" fill="none" xmlns="http://www.w3.org/2000/svg">
<path d="M28.1562 7.89746C25.9433 11.5652 24.6706 15.8642 24.6706 20.4601C24.6709 33.9087 35.5726 44.8106 49.0212 44.8107C50.8765 44.8107 52.683 44.6013 54.4194 44.2083C50.1569 51.2738 42.4088 55.9998 33.5556 56C20.1067 56 9.20374 45.097 9.20374 31.6481C9.20374 20.0547 17.3055 10.3536 28.1562 7.89746Z" fill="#FFD61F"/>
<path d="M33.9547 19.9557C33.171 19.1719 32.0508 18.6864 32.0508 18.6864C32.0508 18.6864 33.171 18.2009 33.9547 17.4171C34.7385 16.6334 35.224 15.5132 35.224 15.5132C35.224 15.5132 35.7095 16.6334 36.4933 17.4171C37.277 18.2009 38.3972 18.6864 38.3972 18.6864C38.3972 18.6864 37.277 19.1719 36.4933 19.9557C35.7095 20.7394 35.224 21.8596 35.224 21.8596C35.224 21.8596 34.7385 20.7394 33.9547 19.9557Z" fill="#FFD61F" stroke="#FFD61F"/>
<path d="M44.1089 33.9177C43.3251 33.134 42.205 32.6484 42.205 32.6484C42.205 32.6484 43.3251 32.1629 44.1089 31.3791C44.8926 30.5954 45.3782 29.4752 45.3782 29.4752C45.3782 29.4752 45.8637 30.5954 46.6474 31.3791C47.4312 32.1629 48.5514 32.6484 48.5514 32.6484C48.5514 32.6484 47.4312 33.134 46.6474 33.9177C45.8637 34.7015 45.3782 35.8216 45.3782 35.8216C45.3782 35.8216 44.8926 34.7015 44.1089 33.9177Z" fill="#FFD61F" stroke="#FFD61F"/>
</svg>
