<svg width="64" height="64" viewBox="0 0 64 64" fill="none" xmlns="http://www.w3.org/2000/svg">
<path d="M17.8391 54.0575C11.0848 54.0575 5.60925 48.582 5.60925 41.8276C5.60925 35.0732 11.0848 29.5977 17.8391 29.5977C19.3037 29.5977 20.7081 29.8552 22.0096 30.3273C24.5775 24.0462 30.749 19.6207 37.9541 19.6207C47.4635 19.6207 55.1725 27.3297 55.1725 36.8391C55.1725 37.258 55.1575 37.6734 55.1281 38.0849C58.0038 39.409 60 42.3162 60 45.6897C60 50.3111 56.2536 54.0575 51.6322 54.0575H17.8391Z" fill="#F5FBFF"/>
<path d="M22.9315 8C21.1881 10.8896 20.1854 14.2766 20.1854 17.8975C20.1855 20.867 20.8599 23.6791 22.0643 26.1885C21.6658 26.873 21.3123 27.5869 21.0096 28.3271C19.7081 27.8551 18.3033 27.5977 16.8387 27.5977C13.5974 27.5978 10.6522 28.8607 8.46375 30.9189C8.1608 29.565 7.99988 28.1572 7.99988 26.7119C7.99988 17.5781 14.3829 9.9351 22.9315 8Z" fill="#FFD61F"/>
<path d="M26.5 17.5C25.8825 16.8825 25 16.5 25 16.5C25 16.5 25.8825 16.1175 26.5 15.5C27.1175 14.8825 27.5 14 27.5 14C27.5 14 27.8825 14.8825 28.5 15.5C29.1175 16.1175 30 16.5 30 16.5C30 16.5 29.1175 16.8825 28.5 17.5C27.8825 18.1175 27.5 19 27.5 19C27.5 19 27.1175 18.1175 26.5 17.5Z" fill="#FFD61F" stroke="#FFD61F"/>
</svg>
