<svg width="64" height="64" viewBox="0 0 64 64" fill="none" xmlns="http://www.w3.org/2000/svg">
<path d="M9 44C9 44 15.992 43 20.5 43C25.008 43 27.5 43.5 32 44C36.5 44.5 38.992 45 43.5 45C48.008 45 55 44 55 44" stroke="#26CAF7" stroke-width="2" stroke-linecap="round"/>
<path d="M36.3447 9C45.8542 9 53.5635 16.7093 53.5635 26.2188C53.5635 26.6375 53.5479 27.0526 53.5186 27.4639C56.3942 28.788 58.3906 31.6959 58.3906 35.0693C58.3905 37.3881 57.4465 39.4855 55.9229 41.001C55.8585 41.0035 55.7937 41.0096 55.7285 41.0186H55.7275C55.7269 41.0186 55.726 41.0193 55.7246 41.0195L55.6514 41.0293C55.5987 41.0364 55.5192 41.0462 55.417 41.0596C55.2126 41.0864 54.9143 41.1257 54.541 41.1719C53.7935 41.2644 52.7476 41.3874 51.5576 41.5107C49.1583 41.7594 46.2435 42 44 42C39.4373 42 37.0289 41.5246 32.2119 41.0117C27.6377 40.5247 24.8452 40 20 40C17.5397 40 14.4549 40.2594 12.0303 40.5107C10.8083 40.6374 9.73523 40.7644 8.96777 40.8594C8.89502 40.8684 8.82501 40.8774 8.75781 40.8857C5.8648 38.6491 4.00005 35.1468 4 31.207C4 24.4528 9.47529 18.9768 16.2295 18.9766C17.694 18.9766 19.0989 19.234 20.4004 19.7061C22.9684 13.4253 29.1398 9.00004 36.3447 9Z" fill="#F5FBFF"/>
<path d="M9 49C9 49 15.992 48 20.5 48C25.008 48 27.5 48.5 32 49C36.5 49.5 38.992 50 43.5 50C48.008 50 55 49 55 49" stroke="#26CAF7" stroke-width="2" stroke-linecap="round"/>
<path d="M12 53.9999C12 53.9999 16.492 53 21 53C25.508 53 27.5 53.4999 32 53.9999C36.5 54.4999 38.492 54.9999 43 54.9999C47.508 54.9999 52 53.9999 52 53.9999" stroke="#26CAF7" stroke-width="2" stroke-linecap="round"/>
</svg>
