<svg width="64" height="64" viewBox="0 0 64 64" fill="none" xmlns="http://www.w3.org/2000/svg">
<path d="M16.5917 41.4556C9.6375 41.4556 4 35.8181 4 28.8639C4 21.9097 9.6375 16.2722 16.5917 16.2722C18.0996 16.2722 19.5456 16.5372 20.8856 17.0233C23.5295 10.5564 29.8835 6 37.3018 6C47.0926 6 55.0296 13.937 55.0296 23.7278C55.0296 24.1591 55.0142 24.5868 54.9839 25.0104C57.9447 26.3737 60 29.3669 60 32.8402C60 37.5984 56.1428 41.4556 51.3846 41.4556H16.5917Z" fill="#F5FBFF"/>
<path d="M46.4771 48.3547L44.7574 44.7693L43.0376 48.3548C42.8669 48.6536 42.7692 49.001 42.7692 49.3715C42.7692 50.4899 43.6593 51.3965 44.7574 51.3965C45.8554 51.3965 46.7455 50.4899 46.7455 49.3715C46.7455 49.0009 46.6478 48.6536 46.4771 48.3547Z" fill="#26CAF7"/>
<path d="M40.5127 55.6449L38.7929 52.0592L37.0732 55.6445C36.9025 55.9434 36.8047 56.2908 36.8047 56.6615C36.8047 57.7798 37.6948 58.6864 38.7929 58.6864C39.8909 58.6864 40.781 57.7798 40.781 56.6615C40.781 56.2909 40.6833 55.9436 40.5127 55.6449Z" fill="#26CAF7"/>
<path d="M34.5482 48.3548L32.8284 44.7693L31.1086 48.3547C30.938 48.6536 30.8402 49.0009 30.8402 49.3715C30.8402 50.4899 31.7303 51.3965 32.8284 51.3965C33.9264 51.3965 34.8165 50.4899 34.8165 49.3715C34.8165 49.001 34.7188 48.6536 34.5482 48.3548Z" fill="#26CAF7"/>
<path d="M28.9149 55.6446L27.1952 52.0592L25.4754 55.6448C25.3048 55.9436 25.2071 56.2909 25.2071 56.6615C25.2071 57.7798 26.0972 58.6864 27.1952 58.6864C28.2933 58.6864 29.1834 57.7798 29.1834 56.6615C29.1834 56.2908 29.0856 55.9434 28.9149 55.6446Z" fill="#26CAF7"/>
<path d="M22.9506 48.3549L21.2308 44.7693L19.511 48.3547C19.3403 48.6535 19.2426 49.0009 19.2426 49.3715C19.2426 50.4899 20.1327 51.3965 21.2307 51.3965C22.3288 51.3965 23.2189 50.4899 23.2189 49.3715C23.2189 49.001 23.1212 48.6537 22.9506 48.3549Z" fill="#26CAF7"/>
<path d="M16.986 55.6447L15.2662 52.0592L13.5465 55.6447C13.3758 55.9435 13.2781 56.2909 13.2781 56.6615C13.2781 57.7798 14.1682 58.6864 15.2662 58.6864C16.3643 58.6864 17.2544 57.7798 17.2544 56.6615C17.2544 56.2909 17.1567 55.9435 16.986 55.6447Z" fill="#26CAF7"/>
</svg>
