<svg width="64" height="64" viewBox="0 0 64 64" fill="none" xmlns="http://www.w3.org/2000/svg">
<path d="M23.4359 33.3159C23.4359 32.8865 23.7839 32.5385 24.2133 32.5385C24.6426 32.5385 24.9907 32.8865 24.9907 33.3159V36.1234L26.3476 34.9173C26.6663 34.634 27.1575 34.6598 27.4448 34.9748C27.7321 35.2898 27.7066 35.7747 27.388 36.058L24.9907 38.1889V41.6704L28.2074 39.8369L28.8343 36.9253C28.9236 36.5104 29.3365 36.2455 29.7565 36.3336C30.1764 36.4217 30.4445 36.8295 30.3551 37.2444L30.0193 38.8042L32.2949 37.5071C32.6643 37.2966 33.1379 37.4234 33.3526 37.7905C33.5672 38.1576 33.4418 38.6259 33.0723 38.8365L30.612 40.2388L32.3214 40.7871C32.73 40.9182 32.9537 41.3512 32.821 41.7543C32.6883 42.1575 32.2495 42.378 31.8409 42.2469L28.8001 41.2715L25.8262 42.9666L29.0347 44.7954L31.8766 43.8838C32.2852 43.7527 32.724 43.9733 32.8567 44.3764C32.9894 44.7795 32.7657 45.2126 32.357 45.3437L30.8466 45.8282L33.1065 47.1163C33.476 47.3268 33.6015 47.7951 33.3868 48.1622C33.1721 48.5293 32.6986 48.6562 32.3291 48.4456L29.8533 47.0344L30.2325 48.796C30.3219 49.2109 30.0538 49.6187 29.6339 49.7068C29.2139 49.7949 28.801 49.53 28.7117 49.1151L28.0413 46.0016L24.9907 44.2628V47.9921L27.2325 49.9849C27.5511 50.2681 27.5766 50.7531 27.2893 51.0681C27.002 51.3831 26.5108 51.4088 26.1921 51.1256L24.9907 50.0576V52.6368C24.9907 53.0661 24.6426 53.4142 24.2133 53.4142C23.7839 53.4142 23.4359 53.0661 23.4359 52.6368V49.8471L22.0991 51.0354C21.7804 51.3187 21.2892 51.2929 21.0019 50.9779C20.7146 50.6629 20.74 50.178 21.0587 49.8947L23.4359 47.7816V44.329L20.1692 46.191L19.548 49.0763C19.4586 49.4912 19.0458 49.7561 18.6258 49.668C18.2058 49.5799 17.9378 49.1721 18.0271 48.7572L18.3573 47.2237L16.0975 48.5118C15.728 48.7223 15.2545 48.5955 15.0398 48.2284C14.8251 47.8613 14.9506 47.393 15.32 47.1824L17.796 45.7712L16.0609 45.2146C15.6523 45.0836 15.4286 44.6505 15.5613 44.2474C15.6939 43.8442 16.1327 43.6237 16.5414 43.7548L19.6079 44.7384L22.7165 42.9666L19.4417 41.1L16.5742 42.0198C16.1656 42.1509 15.7268 41.9304 15.5941 41.5272C15.4614 41.1241 15.6851 40.6911 16.0937 40.56L17.6298 40.0673L15.3543 38.7703C14.9848 38.5597 14.8594 38.0914 15.074 37.7243C15.2887 37.3573 15.7622 37.2304 16.1317 37.441L18.5919 38.8432L18.2182 37.1077C18.1289 36.6928 18.397 36.285 18.8169 36.1969C19.2369 36.1088 19.6498 36.3737 19.7391 36.7886L20.4038 39.876L23.4359 41.6042V37.9426L21.2142 35.9678C20.8955 35.6845 20.8701 35.1995 21.1574 34.8845C21.4447 34.5695 21.9359 34.5438 22.2546 34.827L23.4359 35.8771V33.3159Z" fill="#26CAF7"/>
<path d="M34.5477 46.4556C34.4126 46.3177 34.2561 46.1961 34.0796 46.0958L34.0068 46.0545C34.4789 45.5146 34.6689 44.7478 34.4236 44.0051C34.2956 43.6179 34.0683 43.2949 33.7803 43.0523C34.0508 42.8135 34.2642 42.5018 34.3866 42.1313C34.6506 41.3323 34.4106 40.5052 33.8574 39.9629L34.0441 39.8569C35.0691 39.2749 35.4183 37.9713 34.8216 36.9549C34.2324 35.9513 32.942 35.6056 31.93 36.1802L31.8148 36.2456C31.5851 35.5429 30.9909 34.9854 30.2254 34.8253C29.8264 34.7419 29.4262 34.776 29.0642 34.9058C28.9998 34.5162 28.8251 34.1398 28.5376 33.8257C27.9665 33.202 27.106 32.9945 26.3438 33.2234V33.0123C26.3438 31.8356 25.3899 30.8817 24.2132 30.8817C23.0365 30.8817 22.0826 31.8356 22.0826 33.0123V33.0843C21.3684 32.9367 20.5966 33.1581 20.0706 33.7326C19.7916 34.0374 19.6188 34.4008 19.55 34.778C19.1787 34.6373 18.7652 34.5982 18.3531 34.6843C17.5386 34.8546 16.9181 35.4749 16.7241 36.2412L16.4964 36.1119C15.4844 35.5373 14.1939 35.883 13.6048 36.8866C13.0081 37.9031 13.3573 39.2066 14.3823 39.7886L14.4585 39.8319C13.9763 40.3726 13.7802 41.1472 14.0279 41.8971C14.1595 42.2955 14.3965 42.626 14.6965 42.8709C14.3804 43.1183 14.1305 43.4586 13.9939 43.8719C13.7274 44.6784 13.9744 45.5133 14.5384 46.0553L14.3468 46.1641C14.3072 46.1866 14.2686 46.2101 14.2311 46.2347C8.40524 45.1297 4 40.0113 4 33.8639C4 26.9097 9.6375 21.2722 16.5917 21.2722C18.0996 21.2722 19.5456 21.5372 20.8856 22.0233C23.5295 15.5564 29.8835 11 37.3018 11C47.0926 11 55.0296 18.937 55.0296 28.7278C55.0296 29.1591 55.0142 29.5868 54.9839 30.0104C57.9447 31.3737 60 34.3669 60 37.8402C60 42.5984 56.1428 46.4556 51.3846 46.4556H34.5477Z" fill="#F5FBFF"/>
</svg>
