<svg width="64" height="64" viewBox="0 0 64 64" fill="none" xmlns="http://www.w3.org/2000/svg">
<path d="M44.6457 29.1953H41.1366C40.4846 29.1953 39.9073 29.6165 39.7082 30.2374L36.4383 40.438C36.128 41.4061 36.8501 42.3959 37.8667 42.3959H39.6576C40.2301 42.3959 40.6858 42.8756 40.6563 43.4474L40.1019 54.2158C40.088 54.4845 40.4503 54.5824 40.5737 54.3433L48.2671 39.4379C48.7824 38.4396 48.0577 37.2499 46.9342 37.2499H45.4366C44.7547 37.2499 44.2728 36.5823 44.4875 35.935L46.0694 31.1677C46.3915 30.1968 45.6687 29.1953 44.6457 29.1953Z" fill="#FFD61F"/>
<path d="M49.0902 41.4556L50.1203 39.4598C51.031 37.6955 49.7502 35.5931 47.7647 35.5931H46.3466L47.8626 31.0242C48.432 29.3083 47.1545 27.5385 45.3466 27.5385H40.7675C39.6153 27.5385 38.5949 28.2828 38.2432 29.3801L34.6489 40.5926C34.5561 40.882 34.5155 41.1726 34.5209 41.4556L16.5917 41.4556C9.6375 41.4556 4 35.8181 4 28.8639C4 21.9097 9.6375 16.2722 16.5917 16.2722C18.0996 16.2722 19.5456 16.5372 20.8856 17.0233C23.5295 10.5564 29.8835 6 37.3018 6C47.0926 6 55.0296 13.937 55.0296 23.7278C55.0296 24.1591 55.0142 24.5868 54.9839 25.0104C57.9447 26.3737 60 29.3669 60 32.8402C60 37.5984 56.1427 41.4556 51.3846 41.4556H49.0902Z" fill="#F5FBFF"/>
<path d="M34.2166 54.9816L32.497 51.3965L30.7772 54.9821C30.6066 55.2809 30.5089 55.6282 30.5089 55.9987C30.5089 57.1171 31.399 58.0237 32.497 58.0237C33.5951 58.0237 34.4852 57.1171 34.4852 55.9987C34.4852 55.628 34.3874 55.2805 34.2166 54.9816Z" fill="#26CAF7"/>
<path d="M28.2524 48.3549L26.5325 44.7693L24.8129 48.3545C24.6422 48.6533 24.5444 49.0008 24.5444 49.3715C24.5444 50.4899 25.4345 51.3965 26.5325 51.3965C27.6306 51.3965 28.5207 50.4899 28.5207 49.3715C28.5207 49.001 28.423 48.6537 28.2524 48.3549Z" fill="#26CAF7"/>
<path d="M22.2878 54.982L20.5681 51.3965L18.8484 54.9818C18.6777 55.2806 18.5799 55.628 18.5799 55.9987C18.5799 57.1171 19.47 58.0237 20.5681 58.0237C21.6661 58.0237 22.5562 57.1171 22.5562 55.9987C22.5562 55.6281 22.4585 55.2808 22.2878 54.982Z" fill="#26CAF7"/>
<path d="M16.3232 48.3546L14.6035 44.7693L12.8837 48.3548C12.7131 48.6536 12.6154 49.0009 12.6154 49.3715C12.6154 50.4899 13.5055 51.3965 14.6035 51.3965C15.7016 51.3965 16.5917 50.4899 16.5917 49.3715C16.5917 49.0009 16.4939 48.6535 16.3232 48.3546Z" fill="#26CAF7"/>
</svg>
